<svg xmlns="http://www.w3.org/2000/svg" viewBox="0 0 70 70"><title>cs-icon-influencers</title><polygon points="61.796 49.287 54.064 49.287 54.064 53.357 46.768 49.287 31.438 49.287 31.438 33.991 61.796 33.991 61.796 49.287" style="fill:#75dffc"/><polygon points="61.796 49.287 54.064 49.287 54.064 53.357 46.768 49.287 27.41 49.287 27.41 30.644 61.796 30.644 61.796 49.287" style="fill:none;stroke:#212121;stroke-linecap:round;stroke-linejoin:round"/><polygon points="8.204 35.286 15.936 35.286 15.936 39.356 23.232 35.286 42.59 35.286 42.59 16.643 8.204 16.643 8.204 35.286" style="fill:#fff"/><polygon points="8.204 35.286 15.936 35.286 15.936 39.356 23.232 35.286 42.59 35.286 42.59 16.643 8.204 16.643 8.204 35.286" style="fill:none;stroke:#212121;stroke-linecap:round;stroke-linejoin:round"/><polygon points="8.204 35.286 15.936 35.286 15.936 39.356 23.232 35.286 42.59 35.286 42.59 16.643 8.204 16.643 8.204 35.286" style="fill:#fff"/><polygon points="11.453 35.801 15.936 35.801 15.936 39.356 23.232 35.286 42.589 35.802 42.589 19.521 11.453 19.521 11.453 35.801" style="fill:#ea80fc"/><polygon points="8.204 35.286 15.936 35.286 15.936 39.356 23.232 35.286 42.59 35.286 42.59 16.643 8.204 16.643 8.204 35.286" style="fill:none;stroke:#212121;stroke-linecap:round;stroke-linejoin:round"/></svg>