<?xml version="1.0" encoding="UTF-8"?>
<svg width="121px" height="38px" viewBox="0 0 121 38" version="1.1" xmlns="http://www.w3.org/2000/svg" xmlns:xlink="http://www.w3.org/1999/xlink">
    <!-- Generator: Sketch 53.2 (72643) - https://sketchapp.com -->
    <title>Group 11</title>
    <desc>Created with Sketch.</desc>
    <g id="UI/UX" stroke="none" stroke-width="1" fill="none" fill-rule="evenodd">
        <g transform="translate(-802.000000, -2552.000000)" id="Thank-You-message">
            <g transform="translate(67.000000, 2266.000000)">
                <g id="Group-10" transform="translate(450.000000, 222.000000)">
                    <g id="Group-8">
                        <g id="Group-11" transform="translate(285.000000, 64.000000)">
                            <path d="M17.8468,17.1464 L30.8618,14.0814 C30.8488,14.0284 30.8408,13.9754 30.8278,13.9214 C29.1348,6.7294 21.9308,2.2724 14.7388,3.9664 C7.5468,5.6604 3.0898,12.8634 4.7838,20.0554 C6.4768,27.2474 13.6798,31.7054 20.8718,30.0114 C23.2448,29.4524 25.3178,28.2914 26.9718,26.7304 C22.6008,25.4094 19.0228,21.8854 17.8468,17.1464" id="Fill-1" fill="#A7FFEB"></path>
                            <path d="M15.7101,15.8417 L30.4571,12.3687 C30.4441,12.3087 30.4341,12.2487 30.4191,12.1877 C28.5001,4.0387 20.3371,-1.0123 12.1881,0.9067 C4.0391,2.8267 -1.0119,10.9887 0.9071,19.1387 C2.8261,27.2877 10.9891,32.3387 19.1391,30.4197 C21.8271,29.7857 24.1761,28.4707 26.0511,26.7027 C21.0971,25.2057 17.0431,21.2117 15.7101,15.8417 Z" id="Stroke-3" stroke="#212121" stroke-linecap="round" stroke-linejoin="round"></path>
                            <path d="M23.5514,20.4052 C63.9364,9.7712 63.5574,35.7922 54.0944,37.4142 C44.3574,39.0832 38.1534,10.9982 85.9514,10.3862" id="Stroke-5" stroke="#212121" stroke-linecap="round" stroke-linejoin="round" stroke-dasharray="6"></path>
                            <path d="M106.0245,27.808 C100.2095,27.808 95.4945,23.094 95.4945,17.278 L116.5545,17.278 C116.5545,23.094 111.8405,27.808 106.0245,27.808 M106.0245,3.745 C98.5505,3.745 92.4915,9.804 92.4915,17.278 C92.4915,24.752 98.5505,30.81 106.0245,30.81 C113.4985,30.81 119.5575,24.752 119.5575,17.278 C119.5575,9.804 113.4985,3.745 106.0245,3.745" id="Fill-7" fill="#FF9792"></path>
                            <path d="M104.4019,27.4482 C97.8889,27.4482 92.6099,22.1682 92.6099,15.6552 L116.1949,15.6552 C116.1949,22.1682 110.9149,27.4482 104.4019,27.4482 Z M104.4019,0.5002 C96.0319,0.5002 89.2469,7.2852 89.2469,15.6552 C89.2469,24.0252 96.0319,30.8102 104.4019,30.8102 C112.7719,30.8102 119.5569,24.0252 119.5569,15.6552 C119.5569,7.2852 112.7719,0.5002 104.4019,0.5002 Z" id="Stroke-9" stroke="#212121" stroke-linecap="round" stroke-linejoin="round"></path>
                        </g>
                    </g>
                </g>
            </g>
        </g>
    </g>
</svg>