<svg xmlns="http://www.w3.org/2000/svg" viewBox="0 0 84.91056 84.90919"><path d="M17.61264,10.281H67.29814a7.3308,7.3308,0,0,1,7.3308,7.3308V67.29716a7.331,7.331,0,0,1-7.331,7.331H17.61242a7.3308,7.3308,0,0,1-7.3308-7.3308V17.612a7.331,7.331,0,0,1,7.331-7.331Z" transform="translate(42.4548 -17.58575) rotate(45)" style="fill:#fff"/><path d="M17.61264,10.281H67.29814a7.3308,7.3308,0,0,1,7.3308,7.3308V67.29716a7.331,7.331,0,0,1-7.331,7.331H17.61242a7.3308,7.3308,0,0,1-7.3308-7.3308V17.612a7.331,7.331,0,0,1,7.331-7.331Z" transform="translate(42.4548 -17.58575) rotate(45)" style="fill:#ffb74d;opacity:0.44"/></svg>